<svg xmlns="http://www.w3.org/2000/svg" width="36" height="36" viewBox="0 0 36 36" fill="none">
<path d="M15.4225 16.1777C15.4225 7.34118 22.586 0.177735 31.4225 0.177735H35.4225V4.17774C35.4225 13.0143 28.2591 20.1777 19.4225 20.1777H15.4225V16.1777Z" fill="#FFDC00"/>
<path d="M20.4225 19.1777C20.4225 28.0143 13.2591 35.1777 4.42255 35.1777L0.422547 35.1777L0.422547 31.1777C0.422546 22.3412 7.58599 15.1777 16.4225 15.1777L20.4225 15.1777V19.1777Z" fill="#FFDC00"/>
<path d="M16.4225 20.1777C7.58599 20.1777 0.422547 13.0143 0.422547 4.17773L0.422546 0.177735L4.42255 0.177734C13.2591 0.177734 20.4225 7.34118 20.4225 16.1777V20.1777H16.4225Z" fill="#FFDC00"/>
<path d="M19.4225 15.1777C28.2591 15.1777 35.4225 22.3412 35.4225 31.1777V35.1777H31.4225C22.586 35.1777 15.4225 28.0143 15.4225 19.1777L15.4225 15.1777L19.4225 15.1777Z" fill="#FFDC00"/>
<path d="M17.9221 27.772C12.3472 22.1971 12.3472 13.1584 17.9221 7.5835C23.497 13.1584 23.497 22.1971 17.9221 27.772Z" fill="#FFBE00"/>
<path d="M7.82782 17.6777C13.4027 12.1028 22.4414 12.1028 28.0163 17.6777C22.4414 23.2526 13.4027 23.2526 7.82782 17.6777Z" fill="#FFBE00"/>
<mask id="mask0_1501_8339" style="mask-type:alpha" maskUnits="userSpaceOnUse" x="13" y="7" width="10" height="21">
<path d="M17.9221 27.772C12.3472 22.1971 12.3472 13.1584 17.9221 7.5835C23.497 13.1584 23.497 22.1971 17.9221 27.772Z" fill="#FFBE00"/>
</mask>
<g mask="url(#mask0_1501_8339)">
<path d="M7.82782 17.6777C13.4027 12.1028 22.4414 12.1028 28.0163 17.6777C22.4414 23.2526 13.4027 23.2526 7.82782 17.6777Z" fill="#FF8C00"/>
</g>
</svg>