<svg width="124" height="22" viewBox="0 0 124 22" fill="none" xmlns="http://www.w3.org/2000/svg">
<path d="M16.3369 0.594115C16.6769 0.594115 16.9469 0.704115 17.1469 0.924116C17.3469 1.12412 17.4469 1.38412 17.4469 1.70411V20.3341C17.4469 20.7141 17.3269 21.0241 17.0869 21.2641C16.8469 21.4841 16.5569 21.5941 16.2169 21.5941C16.0369 21.5941 15.8569 21.5641 15.6769 21.5041C15.4969 21.4241 15.3569 21.3241 15.2569 21.2041L2.41686 4.22411L3.01686 3.86412V20.4841C3.01686 20.8041 2.90686 21.0741 2.68686 21.2941C2.48686 21.4941 2.21686 21.5941 1.87686 21.5941C1.55686 21.5941 1.29686 21.4941 1.09686 21.2941C0.896861 21.0741 0.796861 20.8041 0.796861 20.4841V1.79412C0.796861 1.43412 0.906861 1.14412 1.12686 0.924116C1.36686 0.704115 1.64686 0.594115 1.96686 0.594115C2.14686 0.594115 2.32686 0.634115 2.50686 0.714115C2.70686 0.774115 2.85686 0.874115 2.95686 1.01411L15.6169 17.7541L15.2269 18.2341V1.70411C15.2269 1.38412 15.3269 1.12412 15.5269 0.924116C15.7469 0.704115 16.0169 0.594115 16.3369 0.594115ZM45.2709 3.71412L38.2209 20.8741C38.1409 21.1141 38.0009 21.3041 37.8009 21.4441C37.6009 21.5841 37.3909 21.6541 37.1709 21.6541C36.7909 21.6541 36.5109 21.5541 36.3309 21.3541C36.1509 21.1541 36.0609 20.9141 36.0609 20.6341C36.0409 20.4941 36.0609 20.3441 36.1209 20.1841L43.8909 1.28411C43.9909 1.00411 44.1409 0.804115 44.3409 0.684115C44.5609 0.544115 44.8009 0.484115 45.0609 0.504116C45.3209 0.504116 45.5509 0.574116 45.7509 0.714115C45.9709 0.854116 46.1209 1.04412 46.2009 1.28411L53.9409 20.0041C54.0009 20.1641 54.0309 20.3241 54.0309 20.4841C54.0309 20.8441 53.9109 21.1341 53.6709 21.3541C53.4309 21.5541 53.1609 21.6541 52.8609 21.6541C52.6209 21.6541 52.4009 21.5841 52.2009 21.4441C52.0009 21.3041 51.8509 21.1041 51.7509 20.8441L44.6109 3.68412L45.2709 3.71412ZM39.7209 15.9841L40.7409 13.6441H49.6509L50.1009 15.9841H39.7209ZM91.4011 11.0941C91.4011 12.6341 91.1511 14.0641 90.6511 15.3841C90.1511 16.6841 89.4511 17.8241 88.5511 18.8041C87.6511 19.7841 86.5811 20.5441 85.3411 21.0841C84.1011 21.6241 82.7511 21.8941 81.2911 21.8941C79.8111 21.8941 78.4511 21.6241 77.2111 21.0841C75.9911 20.5441 74.9311 19.7841 74.0311 18.8041C73.1311 17.8241 72.4311 16.6841 71.9311 15.3841C71.4311 14.0641 71.1811 12.6341 71.1811 11.0941C71.1811 9.53412 71.4311 8.10412 71.9311 6.80412C72.4311 5.48412 73.1311 4.34412 74.0311 3.38411C74.9311 2.40412 75.9911 1.64412 77.2111 1.10412C78.4511 0.564115 79.8111 0.294115 81.2911 0.294115C82.7511 0.294115 84.1011 0.564115 85.3411 1.10412C86.5811 1.64412 87.6511 2.40412 88.5511 3.38411C89.4511 4.34412 90.1511 5.48412 90.6511 6.80412C91.1511 8.10412 91.4011 9.53412 91.4011 11.0941ZM88.8211 11.0941C88.8211 9.45412 88.4911 8.00412 87.8311 6.74412C87.1911 5.48412 86.3111 4.49412 85.1911 3.77411C84.0711 3.05411 82.7711 2.69411 81.2911 2.69411C79.8111 2.69411 78.5011 3.05411 77.3611 3.77411C76.2411 4.49412 75.3611 5.48412 74.7211 6.74412C74.0811 8.00412 73.7611 9.45412 73.7611 11.0941C73.7611 12.7141 74.0811 14.1641 74.7211 15.4441C75.3611 16.7041 76.2411 17.6941 77.3611 18.4141C78.5011 19.1341 79.8111 19.4941 81.2911 19.4941C82.7711 19.4941 84.0711 19.1341 85.1911 18.4141C86.3111 17.6941 87.1911 16.7041 87.8311 15.4441C88.4911 14.1641 88.8211 12.7141 88.8211 11.0941ZM116.801 21.8941C115.321 21.8941 114.021 21.6741 112.901 21.2341C111.781 20.7941 110.701 20.0941 109.661 19.1341C109.521 18.9941 109.401 18.8441 109.301 18.6841C109.221 18.5041 109.181 18.3141 109.181 18.1141C109.181 17.7941 109.291 17.5141 109.511 17.2741C109.751 17.0141 110.041 16.8841 110.381 16.8841C110.661 16.8841 110.911 16.9941 111.131 17.2141C111.911 17.9741 112.751 18.5541 113.651 18.9541C114.571 19.3541 115.601 19.5541 116.741 19.5541C117.621 19.5541 118.411 19.4141 119.111 19.1341C119.831 18.8541 120.401 18.4641 120.821 17.9641C121.241 17.4641 121.451 16.8841 121.451 16.2241C121.431 15.4241 121.191 14.7641 120.731 14.2441C120.291 13.7241 119.671 13.2941 118.871 12.9541C118.091 12.5941 117.181 12.2941 116.141 12.0541C115.221 11.8341 114.371 11.5641 113.591 11.2441C112.831 10.9241 112.171 10.5341 111.611 10.0741C111.051 9.59412 110.611 9.02412 110.291 8.36412C109.991 7.68412 109.841 6.89412 109.841 5.99411C109.841 4.85412 110.141 3.85412 110.741 2.99412C111.341 2.13412 112.171 1.47411 113.231 1.01411C114.291 0.534115 115.511 0.294115 116.891 0.294115C118.111 0.294115 119.261 0.494115 120.341 0.894114C121.441 1.29412 122.321 1.84412 122.981 2.54411C123.381 2.92411 123.581 3.29411 123.581 3.65411C123.581 3.95412 123.451 4.23412 123.191 4.49411C122.951 4.73412 122.671 4.85412 122.351 4.85412C122.131 4.85412 121.931 4.77412 121.751 4.61411C121.411 4.23412 120.981 3.89412 120.461 3.59412C119.941 3.29412 119.371 3.05412 118.751 2.87412C118.131 2.69412 117.511 2.60412 116.891 2.60412C115.971 2.60412 115.161 2.74412 114.461 3.02412C113.761 3.28412 113.211 3.66412 112.811 4.16412C112.431 4.64412 112.241 5.22412 112.241 5.90412C112.241 6.66412 112.461 7.29412 112.901 7.79412C113.341 8.27412 113.931 8.67412 114.671 8.99412C115.411 9.29412 116.231 9.56412 117.131 9.80412C118.111 10.0441 119.011 10.3241 119.831 10.6441C120.671 10.9441 121.391 11.3241 121.991 11.7841C122.591 12.2441 123.051 12.8341 123.371 13.5541C123.711 14.2541 123.881 15.1241 123.881 16.1641C123.881 17.2641 123.571 18.2441 122.951 19.1041C122.331 19.9641 121.481 20.6441 120.401 21.1441C119.341 21.6241 118.141 21.8741 116.801 21.8941Z" fill="#12475E"/>
</svg>
